# xmcd
#
# Track frame offsets:
#	150
#	14156
#	38403
#	53930
#	75354
#	91526
#	107376
#	124441
#	142450
#	157801
#	173371
#	190318
#	209267
#	227269
#	243679
#	259119
#	275947
#	291655
#	311496
#	327687
#	343090
#
# Disc length: 4806 seconds
#
# Revision: 0
# Processed by: cddbd v1.5.1PL0 Copyright (c) Steve Scherf et al.
# Submitted via: audiograbber 1.83.01
#
DISCID=3412c415
DTITLE=Various Artist - Smirnoff Dance 3. (2000)
DYEAR=2000
DGENRE=pop
TTITLE0=Captain Jack. - Only You. (Extended Twist Mix)
TTITLE1=Vengaboys. - Kiss. (XXL Version)
TTITLE2=El Canario. - Summer '99.
TTITLE3=M. Carey feat. Jay Z. - Heartbreaker.
TTITLE4=Jonas. - Got It Bad For You.
TTITLE5=Soleil. - La Luna. (Extended)
TTITLE6=Rollergirl. - Luv U More.
TTITLE7=Reset. - Blue. (Culture Mix)
TTITLE8=Bad Boys Blue. - Thinking About You.
TTITLE9=Smiles and More. - Jet Set Life.
TTITLE10=Lady Violet. - Inside To Outside. (Rmx)
TTITLE11=Scatman John. - Ichi Ni Sen Go!
TTITLE12=Ann Lee. - Voices.
TTITLE13=Eiffel 65. - Blue. (Da Ba Dee) (Ice Pop Radio Edit)
TTITLE14=Ace Of Base. - C'est La Vie.
TTITLE15=Cher. - Dove L'Amore.
TTITLE16=U.S.U.R.A. - Trance Emotions 2000. (Fargettas Mix)
TTITLE17=Betty N'Boop. - Mr. Sun.
TTITLE18=Caramell. - Jag Ser Pa Dig. (Extended)
TTITLE19=Simone Joy feat Eiffel 65. - Paradise.
TTITLE20=Christian Wunderlich. - Forever Tonight.
EXTD=
EXTT0=
EXTT1=
EXTT2=
EXTT3=
EXTT4=
EXTT5=
EXTT6=
EXTT7=
EXTT8=
EXTT9=
EXTT10=
EXTT11=
EXTT12=
EXTT13=
EXTT14=
EXTT15=
EXTT16=
EXTT17=
EXTT18=
EXTT19=
EXTT20=
PLAYORDER=
